<svg xmlns="http://www.w3.org/2000/svg" viewBox="0 0 24 24" width="24" height="24"><path fill="#21759b" d="M12.158 12.786l-2.698 7.84c.806.236 1.657.365 2.54.365 1.047 0 2.05-.176 2.986-.5l-2.828-7.705zm-5.123.003L4.312 4.836c-1.158 1.93-1.812 4.192-1.812 6.614 0 2.457.674 4.757 1.856 6.72l2.679-5.38zm11.751-6.1c0-.44-.06-.867-.175-1.27l-1.077 3.324c.732.185 1.252.743 1.252 1.417 0 .584-.395 1.12-.876 1.344l1.103 3.01c-.134.015-.266.02-.4.02-.132 0-.265-.005-.394-.015l-1.615-4.41c-.482-.224-.876-.76-.876-1.344 0-.674.52-1.232 1.252-1.417l1.077-3.324c-.115-.403-.175-.83-.175-1.27 0-1.047.456-1.993 1.182-2.656-1.332-.738-2.863-1.162-4.494-1.162-2.457 0-4.757.674-6.72 1.856l5.38 2.679.003-5.123 7.95 2.735zM12 0c6.627 0 12 5.373 12 12s-5.373 12-12 12S0 18.627 0 12 5.373 0 12 0z"/></svg>
